<svg width="142" height="109" viewBox="0 0 142 109" fill="none" xmlns="http://www.w3.org/2000/svg">
<path d="M128.717 9.87476C136.871 18.5356 141.249 28.2494 141.249 43.9956C141.249 71.7039 121.805 96.5385 93.5112 108.817L86.4416 97.9081C112.844 83.6264 118.005 65.0935 120.072 53.4085C115.82 55.6094 110.255 56.3773 104.792 55.8706C90.5108 54.5485 79.2533 42.8239 79.2533 28.2493C79.2533 20.9006 82.1726 13.8529 87.3689 8.6566C92.5652 3.46028 99.6129 0.541016 106.962 0.541016C115.456 0.541016 123.587 4.42018 128.717 9.87476ZM49.55 9.87476C57.7041 18.5356 62.082 28.2494 62.082 43.9956C62.082 71.7039 42.6387 96.5385 14.3445 108.817L7.27496 97.9081C33.677 83.6264 38.8387 65.0935 40.897 53.4085C36.6458 55.6094 31.0804 56.3773 25.6258 55.8706C11.3441 54.5485 0.0945435 42.8239 0.0945435 28.2493C0.0945435 20.9006 3.0138 13.8529 8.21012 8.6566C13.4064 3.46028 20.4542 0.541016 27.8029 0.541016C36.2975 0.541016 44.4279 4.42018 49.5579 9.87476H49.55Z" fill="white"/>
</svg>
