<svg width="330" height="696" viewBox="0 0 330 696" fill="none" xmlns="http://www.w3.org/2000/svg">
<g clip-path="url(#clip0_1_4766)">
<path d="M2.43243 243.243L1.62162 243.243C0.726026 243.243 3.66983e-07 242.491 4.48075e-07 241.564L9.07278e-06 160.598C9.15387e-06 159.671 0.726034 158.919 1.62163 158.919L2.43244 158.919L2.43243 243.243Z" fill="#121515"/>
<path d="M327.568 254.595H328.378C329.274 254.595 330 255.347 330 256.274L330 303.996C330 304.924 329.274 305.676 328.378 305.676H327.568L327.568 254.595Z" fill="#121515"/>
<path d="M327.568 180H328.378C329.274 180 330 180.752 330 181.68L330 214.807C330 215.735 329.274 216.486 328.378 216.486H327.568L327.568 180Z" fill="#121515"/>
<g filter="url(#filter0_d_1_4766)">
<path d="M2.43243 68.5946C2.43243 40.0155 2.43243 25.726 9.71043 15.7087C12.0609 12.4735 14.906 9.62849 18.1412 7.278C28.1585 0 42.448 0 71.027 0H258.973C287.552 0 301.842 0 311.859 7.278C315.094 9.62849 317.939 12.4735 320.29 15.7087C327.568 25.726 327.568 40.0156 327.568 68.5946V627.081C327.568 655.66 327.568 669.95 320.29 679.967C317.939 683.202 315.094 686.047 311.859 688.398C301.842 695.676 287.552 695.676 258.973 695.676H71.027C42.448 695.676 28.1585 695.676 18.1412 688.398C14.906 686.047 12.0609 683.202 9.71043 679.967C2.43243 669.95 2.43243 655.66 2.43243 627.081V68.5946Z" fill="#3A4245"/>
</g>
<path d="M6.48651 70.8647C6.48651 44.7179 6.48651 31.6445 13.1451 22.4797C15.2956 19.5199 17.8985 16.917 20.8583 14.7665C30.0231 8.10791 43.0965 8.10791 69.2433 8.10791H260.757C286.904 8.10791 299.977 8.10791 309.142 14.7665C312.102 16.917 314.705 19.5199 316.855 22.4797C323.514 31.6445 323.514 44.7179 323.514 70.8647V624.811C323.514 650.957 323.514 664.031 316.855 673.196C314.705 676.155 312.102 678.758 309.142 680.909C299.977 687.567 286.904 687.567 260.757 687.567H69.2433C43.0965 687.567 30.0231 687.567 20.8583 680.909C17.8985 678.758 15.2956 676.155 13.1451 673.196C6.48651 664.031 6.48651 650.957 6.48651 624.811V70.8647Z" fill="#121515"/>
</g>
<defs>
<filter id="filter0_d_1_4766" x="-0.810809" y="0" width="331.622" height="702.162" filterUnits="userSpaceOnUse" color-interpolation-filters="sRGB">
<feFlood flood-opacity="0" result="BackgroundImageFix"/>
<feColorMatrix in="SourceAlpha" type="matrix" values="0 0 0 0 0 0 0 0 0 0 0 0 0 0 0 0 0 0 127 0" result="hardAlpha"/>
<feOffset dy="3.24324"/>
<feGaussianBlur stdDeviation="1.62162"/>
<feComposite in2="hardAlpha" operator="out"/>
<feColorMatrix type="matrix" values="0 0 0 0 0 0 0 0 0 0 0 0 0 0 0 0 0 0 0.15 0"/>
<feBlend mode="normal" in2="BackgroundImageFix" result="effect1_dropShadow_1_4766"/>
<feBlend mode="normal" in="SourceGraphic" in2="effect1_dropShadow_1_4766" result="shape"/>
</filter>
<clipPath id="clip0_1_4766">
<rect width="330" height="695.676" fill="white"/>
</clipPath>
</defs>
</svg>
