<svg width="313" height="660" viewBox="0 0 313 660" fill="none" xmlns="http://www.w3.org/2000/svg">
<g clip-path="url(#clip0_1_4658)">
<path d="M2.43945 230.982L1.67187 230.982C0.824031 230.982 0.136717 230.271 0.136717 229.392L0.136726 152.744C0.136726 151.866 0.824039 151.154 1.67188 151.154L2.43946 151.154L2.43945 230.982Z" fill="#121515"/>
<path d="M310.238 241.729H311.006C311.854 241.729 312.541 242.44 312.541 243.318L312.541 288.496C312.541 289.374 311.854 290.086 311.006 290.086H310.238L310.238 241.729Z" fill="#121515"/>
<path d="M310.238 171.111H311.006C311.854 171.111 312.541 171.823 312.541 172.701L312.541 204.062C312.541 204.94 311.854 205.652 311.006 205.652H310.238L310.238 171.111Z" fill="#121515"/>
<g filter="url(#filter0_d_1_4658)">
<path d="M2.43945 65.6461C2.43945 38.5909 2.43945 25.0633 9.32939 15.5801C11.5546 12.5174 14.2479 9.82408 17.3106 7.59892C26.7938 0.708984 40.3214 0.708984 67.3766 0.708984H245.301C272.356 0.708984 285.884 0.708984 295.367 7.59892C298.43 9.82408 301.123 12.5174 303.348 15.5801C310.238 25.0633 310.238 38.5909 310.238 65.6461V594.354C310.238 621.409 310.238 634.937 303.348 644.42C301.123 647.483 298.43 650.176 295.367 652.401C285.884 659.291 272.356 659.291 245.301 659.291H67.3766C40.3214 659.291 26.7938 659.291 17.3106 652.401C14.2479 650.176 11.5546 647.483 9.32939 644.42C2.43945 634.937 2.43945 621.409 2.43945 594.354V65.6461Z" fill="#3A4245"/>
</g>
<path d="M6.27734 67.7953C6.27734 43.0427 6.27734 30.6664 12.5809 21.9903C14.6167 19.1882 17.0808 16.7241 19.8828 14.6883C28.5589 8.38477 40.9353 8.38477 65.6879 8.38477H246.99C271.742 8.38477 284.119 8.38477 292.795 14.6883C295.597 16.7241 298.061 19.1882 300.097 21.9903C306.4 30.6664 306.4 43.0427 306.4 67.7953V592.205C306.4 616.957 306.4 629.334 300.097 638.01C298.061 640.812 295.597 643.276 292.795 645.312C284.119 651.615 271.742 651.615 246.99 651.615H65.6879C40.9353 651.615 28.5589 651.615 19.8828 645.312C17.0808 643.276 14.6167 640.812 12.5809 638.01C6.27734 629.334 6.27734 616.957 6.27734 592.205V67.7953Z" fill="#121515"/>
</g>
<defs>
<filter id="filter0_d_1_4658" x="-0.630859" y="0.708984" width="313.939" height="664.723" filterUnits="userSpaceOnUse" color-interpolation-filters="sRGB">
<feFlood flood-opacity="0" result="BackgroundImageFix"/>
<feColorMatrix in="SourceAlpha" type="matrix" values="0 0 0 0 0 0 0 0 0 0 0 0 0 0 0 0 0 0 127 0" result="hardAlpha"/>
<feOffset dy="3.07031"/>
<feGaussianBlur stdDeviation="1.53516"/>
<feComposite in2="hardAlpha" operator="out"/>
<feColorMatrix type="matrix" values="0 0 0 0 0 0 0 0 0 0 0 0 0 0 0 0 0 0 0.15 0"/>
<feBlend mode="normal" in2="BackgroundImageFix" result="effect1_dropShadow_1_4658"/>
<feBlend mode="normal" in="SourceGraphic" in2="effect1_dropShadow_1_4658" result="shape"/>
</filter>
<clipPath id="clip0_1_4658">
<rect width="312.404" height="658.582" fill="white" transform="translate(0.136719 0.708984)"/>
</clipPath>
</defs>
</svg>
