<svg width="180" height="53" viewBox="0 0 180 53" fill="none" xmlns="http://www.w3.org/2000/svg">
<g clip-path="url(#clip0_1_4623)">
<path d="M173.596 52.6665H6.30533C2.82933 52.6665 0 49.9001 0 46.5136V6.8103C0 3.4225 2.82933 0.666504 6.30533 0.666504H173.596C177.071 0.666504 180 3.4225 180 6.8103V46.5136C180 49.9001 177.071 52.6665 173.596 52.6665Z" fill="#A6A6A6"/>
<path d="M178.709 46.5151C178.709 49.2659 176.424 51.4941 173.597 51.4941H6.30533C3.48 51.4941 1.18667 49.2659 1.18667 46.5151V6.80923C1.18667 4.05973 3.48 1.82373 6.30533 1.82373H173.596C176.424 1.82373 178.708 4.05973 178.708 6.80923L178.709 46.5151Z" fill="black"/>
<path d="M40.1707 26.3856C40.132 22.1957 43.6893 20.1573 43.852 20.0624C41.8373 17.1985 38.7147 16.8072 37.6173 16.776C34.9947 16.5069 32.4507 18.3061 31.1147 18.3061C29.752 18.3061 27.6947 16.802 25.4773 16.8462C22.624 16.8891 19.9547 18.4998 18.4907 21.001C15.4693 26.1009 17.7227 33.5954 20.6173 37.7177C22.0653 39.7366 23.7573 41.9908 25.972 41.9115C28.1387 41.8244 28.948 40.5647 31.5627 40.5647C34.1533 40.5647 34.9133 41.9115 37.172 41.8608C39.4973 41.8244 40.9613 39.8328 42.3587 37.7957C44.032 35.4817 44.704 33.2028 44.7307 33.0858C44.676 33.0676 40.2147 31.4075 40.1707 26.3856Z" fill="white"/>
<path d="M35.904 14.0642C37.0693 12.6433 37.8667 10.7102 37.6453 8.74854C35.9587 8.82134 33.8493 9.88604 32.6347 11.2757C31.56 12.5003 30.6 14.5075 30.848 16.3951C32.7427 16.5329 34.688 15.463 35.904 14.0642Z" fill="white"/>
<path d="M71.5267 41.6217H68.4987L66.84 36.54H61.0747L59.4947 41.6217H56.5467L62.2587 24.3213H65.7867L71.5267 41.6217ZM66.34 34.408L64.84 29.8905C64.6813 29.429 64.384 28.3422 63.9453 26.6314H63.892C63.7173 27.3672 63.436 28.454 63.0493 29.8905L61.576 34.408H66.34Z" fill="white"/>
<path d="M86.216 35.2312C86.216 37.3528 85.628 39.0298 84.452 40.2609C83.3987 41.3568 82.0907 41.9041 80.5293 41.9041C78.844 41.9041 77.6333 41.3139 76.896 40.1335H76.8427V46.705H74V33.2539C74 31.9201 73.964 30.5512 73.8947 29.1472H76.3947L76.5533 31.1245H76.6067C77.5547 29.6347 78.9933 28.8911 80.924 28.8911C82.4333 28.8911 83.6933 29.4722 84.7013 30.6357C85.712 31.8005 86.216 33.3319 86.216 35.2312ZM83.32 35.3326C83.32 34.1184 83.04 33.1174 82.4773 32.3296C81.8627 31.508 81.0373 31.0972 80.0027 31.0972C79.3013 31.0972 78.664 31.326 78.0947 31.7771C77.524 32.2321 77.1507 32.8262 76.976 33.562C76.888 33.9052 76.844 34.186 76.844 34.407V36.487C76.844 37.3944 77.1293 38.1601 77.7 38.7854C78.2707 39.4107 79.012 39.7227 79.924 39.7227C80.9947 39.7227 81.828 39.3197 82.424 38.5163C83.0213 37.7116 83.32 36.6508 83.32 35.3326Z" fill="white"/>
<path d="M100.932 35.2312C100.932 37.3528 100.344 39.0298 99.1667 40.2609C98.1147 41.3568 96.8067 41.9041 95.2453 41.9041C93.56 41.9041 92.3493 41.3139 91.6133 40.1335H91.56V46.705H88.7173V33.2539C88.7173 31.9201 88.6813 30.5512 88.612 29.1472H91.112L91.2707 31.1245H91.324C92.2707 29.6347 93.7093 28.8911 95.6413 28.8911C97.1493 28.8911 98.4093 29.4722 99.42 30.6357C100.427 31.8005 100.932 33.3319 100.932 35.2312ZM98.036 35.3326C98.036 34.1184 97.7547 33.1174 97.192 32.3296C96.5773 31.508 95.7547 31.0972 94.7187 31.0972C94.016 31.0972 93.38 31.326 92.8093 31.7771C92.2387 32.2321 91.8667 32.8262 91.692 33.562C91.6053 33.9052 91.56 34.186 91.56 34.407V36.487C91.56 37.3944 91.8453 38.1601 92.4133 38.7854C92.984 39.4094 93.7253 39.7227 94.64 39.7227C95.7107 39.7227 96.544 39.3197 97.14 38.5163C97.7373 37.7116 98.036 36.6508 98.036 35.3326Z" fill="white"/>
<path d="M117.385 36.7702C117.385 38.2418 116.861 39.4391 115.809 40.3634C114.653 41.3735 113.044 41.8779 110.976 41.8779C109.067 41.8779 107.536 41.5191 106.377 40.8002L107.036 38.4901C108.284 39.2259 109.653 39.5951 111.145 39.5951C112.216 39.5951 113.049 39.3585 113.648 38.8879C114.244 38.4173 114.541 37.7855 114.541 36.9977C114.541 36.2957 114.296 35.7042 113.804 35.2245C113.315 34.7448 112.497 34.2989 111.356 33.8868C108.249 32.7571 106.697 31.1022 106.697 28.926C106.697 27.5038 107.241 26.3377 108.331 25.4303C109.416 24.5216 110.864 24.0679 112.675 24.0679C114.289 24.0679 115.631 24.3422 116.701 24.8895L115.991 27.1489C114.991 26.6185 113.86 26.3533 112.595 26.3533C111.595 26.3533 110.813 26.5938 110.253 27.0722C109.78 27.4999 109.543 28.0212 109.543 28.6387C109.543 29.3225 109.813 29.888 110.357 30.3326C110.831 30.7434 111.691 31.188 112.939 31.6677C114.465 32.267 115.587 32.9677 116.308 33.7711C117.027 34.5719 117.385 35.5742 117.385 36.7702Z" fill="white"/>
<path d="M126.784 31.2269H123.651V37.2836C123.651 38.8241 124.203 39.5937 125.309 39.5937C125.817 39.5937 126.239 39.5508 126.572 39.465L126.651 41.5697C126.091 41.7738 125.353 41.8765 124.44 41.8765C123.317 41.8765 122.44 41.5424 121.807 40.8755C121.176 40.2073 120.859 39.0867 120.859 37.5124V31.2243H118.992V29.1443H120.859V26.8602L123.651 26.0386V29.1443H126.784V31.2269Z" fill="white"/>
<path d="M140.921 35.2816C140.921 37.1991 140.359 38.7734 139.236 40.0045C138.059 41.272 136.496 41.9038 134.548 41.9038C132.671 41.9038 131.176 41.2967 130.061 40.0825C128.947 38.8683 128.389 37.3356 128.389 35.4883C128.389 33.5552 128.963 31.9718 130.113 30.7407C131.261 29.5083 132.811 28.8921 134.759 28.8921C136.636 28.8921 138.147 29.4992 139.287 30.7147C140.377 31.8938 140.921 33.4161 140.921 35.2816ZM137.972 35.3713C137.972 34.2208 137.72 33.2341 137.209 32.4112C136.613 31.4154 135.761 30.9188 134.657 30.9188C133.515 30.9188 132.647 31.4167 132.051 32.4112C131.54 33.2354 131.288 34.2377 131.288 35.4233C131.288 36.5738 131.54 37.5605 132.051 38.3821C132.665 39.3779 133.524 39.8745 134.632 39.8745C135.717 39.8745 136.569 39.3675 137.184 38.3561C137.708 37.5176 137.972 36.5205 137.972 35.3713Z" fill="white"/>
<path d="M150.161 31.5847C149.88 31.534 149.58 31.508 149.265 31.508C148.265 31.508 147.492 31.8759 146.948 32.613C146.475 33.263 146.237 34.0846 146.237 35.0765V41.622H143.396L143.423 33.0758C143.423 31.638 143.387 30.3289 143.316 29.1485H145.792L145.896 31.5353H145.975C146.275 30.715 146.748 30.0546 147.396 29.5593C148.029 29.1134 148.713 28.8911 149.451 28.8911C149.713 28.8911 149.951 28.9093 150.161 28.9418V31.5847Z" fill="white"/>
<path d="M162.875 34.7944C162.875 35.291 162.841 35.7096 162.771 36.0515H154.243C154.276 37.2839 154.688 38.2264 155.48 38.8764C156.199 39.4575 157.128 39.7487 158.269 39.7487C159.532 39.7487 160.684 39.5524 161.72 39.1585L162.165 41.0825C160.955 41.5973 159.525 41.8534 157.876 41.8534C155.892 41.8534 154.335 41.284 153.201 40.1465C152.071 39.009 151.504 37.4815 151.504 35.5653C151.504 33.6842 152.031 32.1177 153.085 30.8684C154.189 29.5346 155.681 28.8677 157.559 28.8677C159.403 28.8677 160.799 29.5346 161.747 30.8684C162.497 31.9279 162.875 33.2383 162.875 34.7944ZM160.164 34.0755C160.183 33.2539 159.997 32.5441 159.612 31.9448C159.12 31.1739 158.364 30.7891 157.347 30.7891C156.417 30.7891 155.661 31.1648 155.084 31.9188C154.611 32.5181 154.329 33.237 154.243 34.0742L160.164 34.0755Z" fill="white"/>
<path d="M65.4 13.6783C65.4 15.2084 64.9293 16.3602 63.9893 17.1337C63.1187 17.8474 61.8813 18.2049 60.2787 18.2049C59.484 18.2049 58.804 18.1711 58.2347 18.1035V9.74321C58.9773 9.62621 59.7773 9.56641 60.6413 9.56641C62.168 9.56641 63.3187 9.89011 64.0947 10.5375C64.964 11.2694 65.4 12.3159 65.4 13.6783ZM63.9267 13.716C63.9267 12.7241 63.6573 11.9636 63.1187 11.4332C62.58 10.9041 61.7933 10.6389 60.7573 10.6389C60.3173 10.6389 59.9427 10.6675 59.632 10.7273V17.083C59.804 17.109 60.1187 17.1207 60.576 17.1207C61.6453 17.1207 62.4707 16.8308 63.052 16.251C63.6333 15.6712 63.9267 14.8262 63.9267 13.716Z" fill="white"/>
<path d="M73.212 15.0147C73.212 15.9572 72.936 16.7294 72.384 17.3352C71.8053 17.9579 71.0387 18.2686 70.0813 18.2686C69.1587 18.2686 68.424 17.9709 67.876 17.3729C67.3293 16.7762 67.056 16.0235 67.056 15.1161C67.056 14.1671 67.3373 13.3884 67.9027 12.7839C68.468 12.1794 69.228 11.8765 70.1853 11.8765C71.108 11.8765 71.8493 12.1742 72.4107 12.7709C72.944 13.3507 73.212 14.0995 73.212 15.0147ZM71.7627 15.0589C71.7627 14.4934 71.6373 14.0085 71.388 13.6042C71.0947 13.1154 70.6773 12.871 70.1347 12.871C69.5733 12.871 69.1467 13.1154 68.8533 13.6042C68.6027 14.0085 68.4787 14.5012 68.4787 15.0836C68.4787 15.6491 68.604 16.134 68.8533 16.5383C69.156 17.0271 69.5773 17.2715 70.1213 17.2715C70.6547 17.2715 71.0733 17.0232 71.3747 16.5253C71.6333 16.1132 71.7627 15.6244 71.7627 15.0589Z" fill="white"/>
<path d="M83.6867 12.0015L81.72 18.1297H80.44L79.6253 15.4686C79.4187 14.8043 79.2507 14.1439 79.12 13.4887H79.0947C78.9733 14.1621 78.8053 14.8212 78.5893 15.4686L77.724 18.1297H76.4293L74.58 12.0015H76.016L76.7267 14.9148C76.8987 15.6038 77.04 16.2603 77.1533 16.8817H77.1787C77.2827 16.3695 77.4547 15.7169 77.6973 14.9278L78.5893 12.0028H79.728L80.5827 14.8654C80.7893 15.5635 80.9573 16.2356 81.0867 16.883H81.1253C81.22 16.2525 81.3627 15.5804 81.552 14.8654L82.3147 12.0028H83.6867V12.0015Z" fill="white"/>
<path d="M90.9307 18.1295H89.5333V14.6195C89.5333 13.5379 89.112 12.9971 88.2667 12.9971C87.852 12.9971 87.5173 13.1453 87.2573 13.443C87 13.7407 86.8693 14.0917 86.8693 14.4934V18.1282H85.472V13.7524C85.472 13.2142 85.4547 12.6305 85.4213 11.9987H86.6493L86.7147 12.9568H86.7533C86.916 12.6591 87.1587 12.4134 87.4773 12.2171C87.856 11.9883 88.28 11.8726 88.744 11.8726C89.3307 11.8726 89.8187 12.0572 90.2067 12.4277C90.6893 12.8814 90.9307 13.5587 90.9307 14.4583V18.1295Z" fill="white"/>
<path d="M94.784 18.1296H93.388V9.18945H94.784V18.1296Z" fill="white"/>
<path d="M103.011 15.0147C103.011 15.9572 102.735 16.7294 102.183 17.3352C101.604 17.9579 100.836 18.2686 99.88 18.2686C98.956 18.2686 98.2213 17.9709 97.6747 17.3729C97.128 16.7762 96.8547 16.0235 96.8547 15.1161C96.8547 14.1671 97.136 13.3884 97.7013 12.7839C98.2667 12.1794 99.0267 11.8765 99.9827 11.8765C100.907 11.8765 101.647 12.1742 102.209 12.7709C102.743 13.3507 103.011 14.0995 103.011 15.0147ZM101.56 15.0589C101.56 14.4934 101.435 14.0085 101.185 13.6042C100.893 13.1154 100.475 12.871 99.9333 12.871C99.3707 12.871 98.944 13.1154 98.652 13.6042C98.4013 14.0085 98.2773 14.5012 98.2773 15.0836C98.2773 15.6491 98.4027 16.134 98.652 16.5383C98.9547 17.0271 99.376 17.2715 99.92 17.2715C100.453 17.2715 100.871 17.0232 101.172 16.5253C101.432 16.1132 101.56 15.6244 101.56 15.0589Z" fill="white"/>
<path d="M109.773 18.1295H108.519L108.415 17.4236H108.376C107.947 17.9865 107.335 18.2686 106.54 18.2686C105.947 18.2686 105.467 18.0827 105.105 17.7135C104.777 17.3781 104.613 16.9608 104.613 16.4655C104.613 15.7167 104.933 15.146 105.577 14.7508C106.22 14.3556 107.124 14.1619 108.288 14.171V14.0566C108.288 13.2493 107.853 12.8463 106.983 12.8463C106.363 12.8463 105.816 12.9984 105.344 13.3L105.06 12.4056C105.644 12.0533 106.365 11.8765 107.216 11.8765C108.859 11.8765 109.683 12.7215 109.683 14.4115V16.6683C109.683 17.2806 109.713 17.7681 109.773 18.1295ZM108.323 16.0235V15.0784C106.781 15.0524 106.011 15.4645 106.011 16.3134C106.011 16.6332 106.099 16.8724 106.279 17.0323C106.459 17.1922 106.688 17.2715 106.961 17.2715C107.268 17.2715 107.555 17.1766 107.816 16.9881C108.079 16.7983 108.24 16.5578 108.3 16.2627C108.315 16.1964 108.323 16.1158 108.323 16.0235Z" fill="white"/>
<path d="M117.713 18.1296H116.473L116.408 17.1455H116.369C115.973 17.8943 115.299 18.2687 114.351 18.2687C113.593 18.2687 112.963 17.9788 112.463 17.399C111.963 16.8192 111.713 16.0665 111.713 15.1422C111.713 14.1503 111.984 13.3469 112.528 12.7333C113.055 12.1613 113.7 11.8753 114.468 11.8753C115.312 11.8753 115.903 12.1522 116.239 12.7073H116.265V9.18945H117.664V16.4786C117.664 17.0753 117.68 17.6252 117.713 18.1296ZM116.265 15.5452V14.5234C116.265 14.3466 116.252 14.2036 116.227 14.0944C116.148 13.7668 115.979 13.4912 115.721 13.2689C115.461 13.0466 115.148 12.9348 114.787 12.9348C114.265 12.9348 113.857 13.1363 113.557 13.5406C113.26 13.9449 113.109 14.461 113.109 15.0915C113.109 15.6973 113.252 16.1887 113.539 16.567C113.841 16.97 114.249 17.1715 114.76 17.1715C115.219 17.1715 115.585 17.0038 115.864 16.6671C116.133 16.3564 116.265 15.982 116.265 15.5452Z" fill="white"/>
<path d="M129.664 15.0147C129.664 15.9572 129.388 16.7294 128.836 17.3352C128.257 17.9579 127.492 18.2686 126.533 18.2686C125.612 18.2686 124.877 17.9709 124.328 17.3729C123.781 16.7762 123.508 16.0235 123.508 15.1161C123.508 14.1671 123.789 13.3884 124.355 12.7839C124.92 12.1794 125.68 11.8765 126.639 11.8765C127.56 11.8765 128.303 12.1742 128.863 12.7709C129.396 13.3507 129.664 14.0995 129.664 15.0147ZM128.216 15.0589C128.216 14.4934 128.091 14.0085 127.841 13.6042C127.547 13.1154 127.131 12.871 126.587 12.871C126.027 12.871 125.6 13.1154 125.305 13.6042C125.055 14.0085 124.931 14.5012 124.931 15.0836C124.931 15.6491 125.056 16.134 125.305 16.5383C125.608 17.0271 126.029 17.2715 126.573 17.2715C127.107 17.2715 127.527 17.0232 127.828 16.5253C128.085 16.1132 128.216 15.6244 128.216 15.0589Z" fill="white"/>
<path d="M137.177 18.1295H135.781V14.6195C135.781 13.5379 135.36 12.9971 134.513 12.9971C134.099 12.9971 133.764 13.1453 133.505 13.443C133.247 13.7407 133.117 14.0917 133.117 14.4934V18.1282H131.719V13.7524C131.719 13.2142 131.703 12.6305 131.669 11.9987H132.896L132.961 12.9568H133C133.164 12.6591 133.407 12.4134 133.724 12.2171C134.104 11.9883 134.527 11.8726 134.992 11.8726C135.577 11.8726 136.065 12.0572 136.453 12.4277C136.937 12.8814 137.177 13.5587 137.177 14.4583V18.1295Z" fill="white"/>
<path d="M146.581 13.0218H145.043V15.9988C145.043 16.7554 145.316 17.1337 145.857 17.1337C146.108 17.1337 146.316 17.1129 146.48 17.07L146.516 18.1035C146.24 18.2049 145.877 18.2556 145.431 18.2556C144.879 18.2556 144.449 18.0918 144.139 17.7642C143.827 17.4366 143.672 16.8854 143.672 16.1119V13.0218H142.753V12.0013H143.672V10.8781L145.041 10.4751V12H146.58L146.581 13.0218Z" fill="white"/>
<path d="M153.979 18.1296H152.58V14.6456C152.58 13.5471 152.159 12.9972 151.315 12.9972C150.667 12.9972 150.224 13.3157 149.981 13.9527C149.94 14.0866 149.916 14.2504 149.916 14.4428V18.1283H148.52V9.18945H149.916V12.8828H149.943C150.383 12.2107 151.013 11.8753 151.831 11.8753C152.409 11.8753 152.888 12.0599 153.268 12.4304C153.741 12.8919 153.979 13.5783 153.979 14.4857V18.1296Z" fill="white"/>
<path d="M161.609 14.7754C161.609 15.0198 161.591 15.2252 161.557 15.3929H157.367C157.385 15.9987 157.585 16.4602 157.973 16.78C158.328 17.066 158.785 17.209 159.345 17.209C159.965 17.209 160.531 17.1128 161.04 16.9191L161.259 17.8655C160.663 18.1177 159.961 18.2438 159.149 18.2438C158.176 18.2438 157.409 17.9643 156.855 17.4053C156.297 16.8463 156.021 16.0962 156.021 15.155C156.021 14.2307 156.279 13.4611 156.797 12.8475C157.339 12.1923 158.071 11.8647 158.995 11.8647C159.899 11.8647 160.585 12.1923 161.049 12.8475C161.424 13.3675 161.609 14.011 161.609 14.7754ZM160.276 14.4231C160.287 14.0188 160.195 13.6704 160.005 13.3766C159.763 12.9983 159.393 12.8085 158.893 12.8085C158.437 12.8085 158.065 12.9931 157.781 13.3636C157.549 13.6587 157.412 14.011 157.367 14.4231H160.276Z" fill="white"/>
</g>
<defs>
<clipPath id="clip0_1_4623">
<rect width="180" height="52" fill="white" transform="translate(0 0.666504)"/>
</clipPath>
</defs>
</svg>
