<svg width="158" height="22" viewBox="0 0 158 22" fill="none" xmlns="http://www.w3.org/2000/svg">
<path d="M0.470117 21V1.68H6.11012V8.88H12.7701V1.68H18.4101V21H12.7701V13.8H6.11012V21H0.470117ZM26.2844 21.3C24.6244 21.3 23.3244 20.83 22.3844 19.89C21.4444 18.95 20.9744 17.57 20.9744 15.75V6.78H26.6144V15.3C26.6144 16.54 27.2444 17.16 28.5044 17.16C28.9644 17.16 29.4144 17.06 29.8544 16.86C30.2944 16.66 30.6444 16.41 30.9044 16.11V6.78H36.5444V21H31.2644L31.1144 19.92C30.5544 20.32 29.8644 20.65 29.0444 20.91C28.2444 21.17 27.3244 21.3 26.2844 21.3ZM48.7099 21.3C47.7899 21.3 46.9799 21.18 46.2799 20.94C45.5999 20.68 44.9699 20.33 44.3899 19.89L44.1199 21H39.2299V0.779999H44.8699V7.29C45.3499 7.03 45.9099 6.83 46.5499 6.69C47.2099 6.55 47.8699 6.48 48.5299 6.48C50.6499 6.48 52.3099 7.05 53.5099 8.19C54.7299 9.31 55.3399 11.17 55.3399 13.77C55.3399 16.31 54.7399 18.2 53.5399 19.44C52.3399 20.68 50.7299 21.3 48.7099 21.3ZM47.0899 17.22C47.9699 17.22 48.5999 16.96 48.9799 16.44C49.3799 15.9 49.5799 15.03 49.5799 13.83C49.5799 12.61 49.3699 11.76 48.9499 11.28C48.5499 10.8 47.9299 10.56 47.0899 10.56C46.1699 10.56 45.4299 10.81 44.8699 11.31V16.35C45.4899 16.93 46.2299 17.22 47.0899 17.22ZM62.6125 21.3C60.9525 21.3 59.6525 20.83 58.7125 19.89C57.7725 18.95 57.3025 17.57 57.3025 15.75V6.78H62.9425V15.3C62.9425 16.54 63.5725 17.16 64.8325 17.16C65.2925 17.16 65.7425 17.06 66.1825 16.86C66.6225 16.66 66.9725 16.41 67.2325 16.11V6.78H72.8725V21H67.5925L67.4425 19.92C66.8825 20.32 66.1925 20.65 65.3725 20.91C64.5725 21.17 63.6525 21.3 62.6125 21.3ZM81.108 21.3C79.888 21.3 78.738 21.21 77.658 21.03C76.598 20.87 75.758 20.66 75.138 20.4V16.35C75.838 16.67 76.668 16.92 77.628 17.1C78.608 17.28 79.438 17.37 80.118 17.37C80.838 17.37 81.378 17.35 81.738 17.31C82.118 17.27 82.308 17.1 82.308 16.8C82.308 16.46 81.978 16.2 81.318 16.02C80.658 15.84 79.828 15.58 78.828 15.24C77.528 14.78 76.558 14.24 75.918 13.62C75.278 13 74.958 12.1 74.958 10.92C74.958 9.5 75.518 8.41 76.638 7.65C77.758 6.87 79.518 6.48 81.918 6.48C82.838 6.48 83.788 6.55 84.768 6.69C85.748 6.83 86.518 6.99 87.078 7.17V11.13C86.478 10.87 85.818 10.68 85.098 10.56C84.398 10.44 83.758 10.38 83.178 10.38C82.538 10.38 81.968 10.41 81.468 10.47C80.968 10.53 80.718 10.7 80.718 10.98C80.718 11.3 80.998 11.53 81.558 11.67C82.138 11.81 82.908 12.03 83.868 12.33C84.948 12.65 85.788 13 86.388 13.38C87.008 13.76 87.438 14.22 87.678 14.76C87.938 15.3 88.068 15.97 88.068 16.77C88.068 18.21 87.478 19.33 86.298 20.13C85.138 20.91 83.408 21.3 81.108 21.3ZM111.389 21.54L109.439 19.56C108.759 20.12 107.889 20.55 106.829 20.85C105.789 21.15 104.669 21.3 103.469 21.3C101.109 21.3 99.2295 20.81 97.8295 19.83C96.4295 18.83 95.7295 17.51 95.7295 15.87C95.7295 14.57 96.0695 13.46 96.7495 12.54C97.4295 11.62 98.3895 10.82 99.6295 10.14C99.0495 9.54 98.5795 8.95 98.2195 8.37C97.8795 7.77 97.7095 7.07 97.7095 6.27C97.7095 4.81 98.2495 3.63 99.3295 2.73C100.409 1.83 101.859 1.38 103.679 1.38C105.499 1.38 106.959 1.82 108.059 2.7C109.159 3.58 109.709 4.77 109.709 6.27C109.709 7.23 109.499 8.06 109.079 8.76C108.659 9.44 108.039 10.11 107.219 10.77L110.219 13.83C110.439 13.45 110.549 12.98 110.549 12.42V11.91H114.719V12.6C114.719 13.4 114.589 14.18 114.329 14.94C114.089 15.7 113.769 16.34 113.369 16.86L114.869 18.39L111.389 21.54ZM103.649 8.61C104.169 8.29 104.559 7.99 104.819 7.71C105.079 7.41 105.209 7.02 105.209 6.54C105.209 6.1 105.089 5.75 104.849 5.49C104.609 5.21 104.239 5.07 103.739 5.07C103.199 5.07 102.809 5.22 102.569 5.52C102.329 5.8 102.209 6.14 102.209 6.54C102.209 6.98 102.329 7.35 102.569 7.65C102.829 7.95 103.189 8.27 103.649 8.61ZM103.469 17.49C104.589 17.49 105.439 17.18 106.019 16.56L103.019 13.5C102.399 13.76 101.929 14.06 101.609 14.4C101.309 14.74 101.159 15.18 101.159 15.72C101.159 16.28 101.369 16.72 101.789 17.04C102.209 17.34 102.769 17.49 103.469 17.49ZM132.984 21.3C129.484 21.3 126.814 20.44 124.974 18.72C123.134 17 122.214 14.57 122.214 11.43C122.214 8.19 123.114 5.71 124.914 3.99C126.714 2.25 129.394 1.38 132.954 1.38C134.154 1.38 135.224 1.47 136.164 1.65C137.104 1.83 138.004 2.08 138.864 2.4V7.32C137.144 6.56 135.304 6.18 133.344 6.18C131.524 6.18 130.174 6.6 129.294 7.44C128.414 8.26 127.974 9.59 127.974 11.43C127.974 13.23 128.434 14.53 129.354 15.33C130.294 16.11 131.644 16.5 133.404 16.5C134.364 16.5 135.294 16.41 136.194 16.23C137.114 16.05 138.024 15.77 138.924 15.39V20.34C138.064 20.64 137.154 20.87 136.194 21.03C135.254 21.21 134.184 21.3 132.984 21.3ZM148.747 21.3C145.907 21.3 143.807 20.67 142.447 19.41C141.107 18.15 140.437 16.31 140.437 13.89C140.437 11.49 141.117 9.66 142.477 8.4C143.837 7.12 145.927 6.48 148.747 6.48C151.587 6.48 153.687 7.12 155.047 8.4C156.427 9.66 157.117 11.49 157.117 13.89C157.117 16.31 156.437 18.15 155.077 19.41C153.717 20.67 151.607 21.3 148.747 21.3ZM148.747 17.19C149.667 17.19 150.327 16.93 150.727 16.41C151.147 15.89 151.357 15.05 151.357 13.89C151.357 12.75 151.147 11.92 150.727 11.4C150.327 10.86 149.667 10.59 148.747 10.59C147.847 10.59 147.197 10.86 146.797 11.4C146.397 11.92 146.197 12.75 146.197 13.89C146.197 15.05 146.397 15.89 146.797 16.41C147.197 16.93 147.847 17.19 148.747 17.19Z" fill="white"/>
</svg>
